<svg width="128" height="85" fill="none" xmlns="http://www.w3.org/2000/svg"><path d="M10.28 71.72c-1.08 0-2.24-.08-3.2-.6-.84-1.28-1.32-6.32-1.32-8.24v-.2c3.04-.24 6.44-.32 9.4-1.04.52-.12.96-.56.96-1.12 0-.64-.44-1.28-1.12-1.28-2.76 0-6.36.8-9.28 1.04v-2.56c0-4.28.4-8.48 5.6-9.08.36-.04.76-.04 1.12-.04 1.12 0 2.16.12 3.28.12.68 0 1.12-.6 1.12-1.24 0-.68-.6-1-1.36-1.16-.76-.16-1.52-.24-2.32-.24-.72 0-1.44.08-2.12.16-9.88 1.08-9.96 5.92-9.96 14.28 0 2.6.12 11.56 2.6 12.88 1.32.72 3.64.76 5.12.76 1.96 0 10.2-.32 10.2-2.48 0-.72-.6-1.12-1.24-1.12-1.76 0-4.88 1.16-7.48 1.16Zm24.33-8.2c-1.44 0-7.76.76-7.76 2.52 0 .76.56 1.2 1.28 1.2 1.56 0 4.24-1.36 6.52-1.36.24 0 .76 0 1.04.16.04.16.04.32.04.48 0 2.32-3.8 5-5.96 5-3.8 0-4.72-7.16-4.72-9.84 0-3.68 1.6-13 6.64-13 3.96 0 1.48 9.92 4 9.92.68 0 1.2-.52 1.2-1.2 0-3.56-.24-11.12-5.2-11.12-8.68 0-11.28 7.8-11.28 15.2 0 6.08 2.2 12.44 9.36 12.44 3.56 0 8.44-3.72 8.44-7.48 0-2.2-1.68-2.92-3.6-2.92ZM55.54 46.24c-2.72 0-.84 17.8-8.52 17.8-2.48 0-2.52-4.4-2.52-6.2 0-3.16.52-6.2.52-9.2 0-1-.24-2.4-1.56-2.4-3 0-3.52 7.16-3.52 9.28 0 4.52 1.4 10.92 7.08 10.92 4.6 0 6.92-4.72 8.04-8.52-.16 3.48-.76 7.6-2.92 10.44-2.64 3.44-7 2.64-7 4.44 0 .64.6 1.12 1.2 1.12 9.36 0 13.48-7.36 13.48-15.96 0-2.52-.84-11.72-4.28-11.72Zm11.163 6.92c0-2.2 1.28-4.56 3.76-4.56 4 0 2.4 1.96 4.2 1.96.68 0 1.16-.68 1.16-1.28 0-2.4-3.68-3.08-5.44-3.08-3.8 0-8.24 3.24-8.24 7.24 0 7.12 12.52 5.84 12.52 12.76 0 2.96-.92 5.32-4.2 5.32-4.12 0-5.8-4.2-6.52-7.52-.12-.48-.52-1.04-1.08-1.04-.64 0-1.32.36-1.32 1.08 0 4.52 4.2 9.88 8.92 9.88 4.48 0 8.64-2.84 8.64-7.64 0-8.84-12.4-7.68-12.4-13.12Zm23.544 5.64c-2.56 0-3.88 3.12-4.68 4.96l-.08.16.12-2.56c.2-4.08.32-7.12.32-9.28v-1.72c0-2-.68-2.4-1.44-2.4-1.32 0-1.88 1.52-2.04 2-.84 2.36-1.64 7.84-1.64 12.96 0 5.84.48 11.08 2.88 11.08.64 0 1.08-.4 1.24-.92.04-.28.84-3.16 1.92-6.08 2-5.4 3.16-5.8 3.28-5.8.56.2.72 2.92.72 3.36v.56c0 2.44-.4 5.24-.4 6.68v.52c0 .92.44 1.68 1.32 1.68 1.16 0 3.76-2.24 3.76-7.88 0-2.84-1.08-7.36-5.28-7.32Zm17.733 3.2c-.44-1.72-2.16-3.16-3.84-3.16-4 0-7.24 2.92-7.44 7.52v.2c0 4 2.76 7.2 6.72 7.44h.24c3.84 0 6.28-4 6.28-8 0-1.52-.32-4-1.76-4h-.2Zm-1.6 7.96c-.52.76-1.36 1.64-2.64 1.64h-.2c-.92-.12-2.12-1.88-2.12-4.8 0-2.8 1.16-5.56 2.68-5.56.36 0 1.64.48 1.64 1.96 0 .64.52 1.2 1.2 1.2.12 0 .28-.04.4-.08.12.52.2 1.08.2 1.64 0 1.44-.4 2.88-1.16 4Zm19.321-9.52c-1.08-1.04-2.56-1.6-4.28-1.6-1.6 0-3.24 1.16-4.72 3.44-.4-2.32-.2-3.48-1.68-3.48-1.68 0-3.12 2.96-3.12 16.6 0 7.64.76 8.76 2.12 8.76 1.08 0 2.32-.92 2.6-10.8.64.4 1.36.64 2.08.64 3.68 0 5.72-1.76 6.8-3.24 1.2-1.64 1.84-3.84 1.84-6.2 0-1.64-.6-3.12-1.64-4.12Zm-8.92 6.6c2.48-5.16 4.12-5.8 4.64-5.8.76 0 1.32 1.4 1.32 3.36 0 2.44-.84 7-4.04 7-.64 0-1.6-.68-1.6-2.12 0-.32-.12-.6-.32-.8v-1.64Z" fill="#fff"/><path d="M31 34c10.864-23.393 39.274-56.144 66 0" stroke="#fff" stroke-width="5"/></svg>