<svg width="25" height="25" fill="none" xmlns="http://www.w3.org/2000/svg"><path d="m24.484 22.618-4.7-4.707a11.027 11.027 0 0 0 2.336-6.804c0-2.196-.648-4.344-1.864-6.17A11.07 11.07 0 0 0 15.293.846a11.016 11.016 0 0 0-6.39-.633 11.046 11.046 0 0 0-5.664 3.04A11.122 11.122 0 0 0 .213 8.941a11.152 11.152 0 0 0 .629 6.417 11.098 11.098 0 0 0 4.073 4.985 11.027 11.027 0 0 0 6.145 1.872 10.92 10.92 0 0 0 6.774-2.346l4.687 4.72a1.382 1.382 0 0 0 1.514.304c.168-.07.32-.174.45-.304a1.39 1.39 0 0 0 0-1.971ZM2.765 11.108c0-1.648.487-3.259 1.398-4.629a8.303 8.303 0 0 1 3.723-3.068 8.262 8.262 0 0 1 9.04 1.806 8.364 8.364 0 0 1 1.798 9.079 8.322 8.322 0 0 1-3.055 3.738 8.27 8.27 0 0 1-10.474-1.036 8.349 8.349 0 0 1-2.43-5.89Z" fill="silver"/></svg>