<svg width="154" height="101" fill="none" xmlns="http://www.w3.org/2000/svg"><path d="M12.336 85.264c-1.296 0-2.688-.096-3.84-.72-1.008-1.536-1.584-7.584-1.584-9.888v-.24c3.648-.288 7.728-.384 11.28-1.248.624-.144 1.152-.672 1.152-1.344 0-.768-.528-1.536-1.344-1.536-3.312 0-7.632.96-11.136 1.248v-3.072c0-5.136.48-10.176 6.72-10.896.432-.048.912-.048 1.344-.048 1.344 0 2.592.144 3.936.144.816 0 1.344-.72 1.344-1.488 0-.816-.72-1.2-1.632-1.392a13.364 13.364 0 0 0-2.784-.288c-.864 0-1.728.096-2.544.192C1.392 55.984 1.296 61.792 1.296 71.824c0 3.12.144 13.872 3.12 15.456 1.584.864 4.368.912 6.144.912 2.352 0 12.24-.384 12.24-2.976 0-.864-.72-1.344-1.488-1.344-2.112 0-5.856 1.392-8.976 1.392Zm29.196-9.84c-1.728 0-9.312.912-9.312 3.024 0 .912.672 1.44 1.536 1.44 1.872 0 5.088-1.632 7.824-1.632.288 0 .912 0 1.248.192.048.192.048.384.048.576 0 2.784-4.56 6-7.152 6-4.56 0-5.664-8.592-5.664-11.808 0-4.416 1.92-15.6 7.968-15.6 4.752 0 1.776 11.904 4.8 11.904.816 0 1.44-.624 1.44-1.44 0-4.272-.288-13.344-6.24-13.344-10.416 0-13.536 9.36-13.536 18.24 0 7.296 2.64 14.928 11.232 14.928 4.272 0 10.128-4.464 10.128-8.976 0-2.64-2.016-3.504-4.32-3.504Zm25.115-20.736c-3.265 0-1.009 21.36-10.225 21.36-2.975 0-3.023-5.28-3.023-7.44 0-3.792.623-7.44.623-11.04 0-1.2-.288-2.88-1.871-2.88-3.6 0-4.225 8.592-4.225 11.136 0 5.424 1.68 13.104 8.496 13.104 5.52 0 8.305-5.664 9.648-10.224-.191 4.176-.911 9.12-3.503 12.528-3.169 4.128-8.4 3.168-8.4 5.328 0 .768.72 1.344 1.44 1.344 11.231 0 16.175-8.832 16.175-19.152 0-3.024-1.007-14.064-5.135-14.064Zm13.396 8.304c0-2.64 1.536-5.472 4.512-5.472 4.8 0 2.88 2.352 5.04 2.352.816 0 1.392-.816 1.392-1.536 0-2.88-4.416-3.696-6.528-3.696-4.56 0-9.888 3.888-9.888 8.688 0 8.544 15.024 7.008 15.024 15.312 0 3.552-1.104 6.384-5.04 6.384-4.944 0-6.96-5.04-7.824-9.024-.144-.576-.624-1.248-1.296-1.248-.768 0-1.584.432-1.584 1.296 0 5.424 5.04 11.856 10.704 11.856 5.376 0 10.368-3.408 10.368-9.168 0-10.608-14.88-9.216-14.88-15.744Zm28.252 6.768c-3.072 0-4.656 3.744-5.616 5.952l-.096.192.144-3.072c.24-4.896.384-8.544.384-11.136v-2.064c0-2.4-.816-2.88-1.728-2.88-1.584 0-2.256 1.824-2.448 2.4-1.008 2.832-1.968 9.408-1.968 15.552 0 7.008.576 13.296 3.456 13.296.768 0 1.296-.48 1.488-1.104.048-.336 1.008-3.792 2.304-7.296 2.4-6.48 3.792-6.96 3.936-6.96.672.24.864 3.504.864 4.032v.672c0 2.928-.48 6.288-.48 8.016v.624c0 1.104.528 2.016 1.584 2.016 1.392 0 4.512-2.688 4.512-9.456 0-3.408-1.296-8.832-6.336-8.784Zm21.28 3.84c-.528-2.064-2.592-3.792-4.608-3.792-4.8 0-8.688 3.504-8.928 9.024v.24c0 4.8 3.312 8.64 8.064 8.928h.288c4.608 0 7.536-4.8 7.536-9.6 0-1.824-.384-4.8-2.112-4.8h-.24Zm-1.92 9.552c-.624.912-1.632 1.968-3.168 1.968h-.24c-1.104-.144-2.544-2.256-2.544-5.76 0-3.36 1.392-6.672 3.216-6.672.432 0 1.968.576 1.968 2.352 0 .768.624 1.44 1.44 1.44.144 0 .336-.048.48-.096.144.624.24 1.296.24 1.968 0 1.728-.48 3.456-1.392 4.8Zm23.185-11.424c-1.296-1.248-3.072-1.92-5.136-1.92-1.92 0-3.888 1.392-5.664 4.128-.48-2.784-.24-4.176-2.016-4.176-2.016 0-3.744 3.552-3.744 19.92 0 9.168.912 10.512 2.544 10.512 1.296 0 2.784-1.104 3.12-12.96.768.48 1.632.768 2.496.768 4.416 0 6.864-2.112 8.16-3.888 1.44-1.968 2.208-4.608 2.208-7.44 0-1.968-.72-3.744-1.968-4.944Zm-10.704 7.92c2.976-6.192 4.944-6.96 5.568-6.96.912 0 1.584 1.68 1.584 4.032 0 2.928-1.008 8.4-4.848 8.4-.768 0-1.92-.816-1.92-2.544 0-.384-.144-.72-.384-.96v-1.968Z" fill="#2C5644"/><path d="M36 40.546c13.333-28.333 48.2-68 81 0" stroke="#2C5644" stroke-width="5"/></svg>