<svg width="61" height="55" fill="none" xmlns="http://www.w3.org/2000/svg"><path d="M28.833 23.166h22.983a3.333 3.333 0 0 1 3.317 3.665l-1 10a3.333 3.333 0 0 1-3.317 3.002H34.9a3.333 3.333 0 0 1-3.27-2.68l-2.797-13.987Z" stroke="#000" stroke-width="4" stroke-linejoin="round"/><path d="M47.166 46.5H50.5M28.833 23.167l-1.35-5.405a1.666 1.666 0 0 0-1.617-1.262h-2.033l5 6.667Zm5 23.333h3.333-3.333Z" stroke="#000" stroke-width="4" stroke-linecap="round" stroke-linejoin="round"/><path d="M9.955 37.602V23.216h1.943v14.386H9.955Zm-6.228-6.227v-1.932h14.398v1.932H3.727Z" fill="#000"/></svg>