<svg width="76" height="76" fill="none" xmlns="http://www.w3.org/2000/svg"><circle cx="38" cy="38" r="38" fill="#EBFFF6"/><path d="M34.334 30.666h22.983a3.333 3.333 0 0 1 3.317 3.665l-1 10a3.334 3.334 0 0 1-3.317 3.002H40.401a3.333 3.333 0 0 1-3.27-2.68l-2.797-13.987Z" stroke="#000" stroke-width="4" stroke-linejoin="round"/><path d="M52.667 54h3.334M34.334 30.667l-1.35-5.405A1.666 1.666 0 0 0 31.367 24h-2.033l5 6.667Zm5 23.333h3.333-3.333Z" stroke="#000" stroke-width="4" stroke-linecap="round" stroke-linejoin="round"/><path d="M15.454 45.102V30.716h1.944v14.386h-1.944Zm-6.227-6.227v-1.932h14.398v1.932H9.227Z" fill="#000"/></svg>