<svg width="33" height="33" fill="none" xmlns="http://www.w3.org/2000/svg"><g clip-path="url(#a)"><path d="M32.484 16.809c0-1.352-.108-2.339-.344-3.362H16.818v6.102h8.994c-.181 1.517-1.16 3.8-3.337 5.335l-.03.205 4.844 3.781.336.034c3.082-2.869 4.86-7.089 4.86-12.095Z" fill="#4285F4"/><path d="M16.818 32.886c4.406 0 8.105-1.461 10.807-3.982l-5.15-4.02c-1.378.968-3.227 1.644-5.657 1.644-4.315 0-7.978-2.868-9.283-6.833l-.192.017-5.037 3.928-.066.184c2.684 5.372 8.196 9.062 14.578 9.062Z" fill="#34A853"/><path d="M7.535 19.696a10.193 10.193 0 0 1-.544-3.252c0-1.133.2-2.23.526-3.252l-.01-.218-5.1-3.992-.166.08A16.561 16.561 0 0 0 .5 16.444c0 2.649.635 5.152 1.74 7.38l5.295-4.128Z" fill="#FBBC05"/><path d="M16.818 6.358c3.065 0 5.132 1.334 6.31 2.448l4.606-4.53C24.905 1.625 21.224 0 16.818 0 10.436 0 4.924 3.69 2.24 9.062l5.277 4.13c1.323-3.965 4.986-6.834 9.301-6.834Z" fill="#EB4335"/></g><defs><clipPath id="a"><path fill="#fff" transform="translate(.5)" d="M0 0h32v33H0z"/></clipPath></defs></svg>