<svg width="184" height="32" fill="none" xmlns="http://www.w3.org/2000/svg"><path d="M14.098 5.854c.599-1.843 3.205-1.843 3.804 0l1.241 3.82a2 2 0 0 0 1.902 1.382h4.016c1.938 0 2.744 2.479 1.176 3.618l-3.25 2.36a2 2 0 0 0-.726 2.236l1.241 3.82c.6 1.843-1.51 3.375-3.077 2.236l-3.25-2.36a2 2 0 0 0-2.35 0l-3.25 2.36c-1.567 1.139-3.676-.393-3.077-2.236l1.24-3.82a2 2 0 0 0-.726-2.236l-3.25-2.36c-1.567-1.139-.761-3.618 1.176-3.618h4.017a2 2 0 0 0 1.902-1.382l1.24-3.82ZM46.098 5.854c.599-1.843 3.205-1.843 3.804 0l1.241 3.82a2 2 0 0 0 1.902 1.382h4.017c1.937 0 2.742 2.479 1.175 3.618l-3.25 2.36a2 2 0 0 0-.726 2.236l1.241 3.82c.6 1.843-1.51 3.375-3.077 2.236l-3.25-2.36a2 2 0 0 0-2.35 0l-3.25 2.36c-1.567 1.139-3.676-.393-3.078-2.236l1.242-3.82a2 2 0 0 0-.727-2.236l-3.25-2.36c-1.566-1.139-.761-3.618 1.176-3.618h4.017a2 2 0 0 0 1.902-1.382l1.24-3.82ZM78.098 5.854c.599-1.843 3.205-1.843 3.804 0l1.241 3.82a2 2 0 0 0 1.902 1.382h4.016c1.938 0 2.743 2.479 1.176 3.618l-3.25 2.36a2 2 0 0 0-.726 2.236l1.241 3.82c.6 1.843-1.51 3.375-3.077 2.236l-3.25-2.36a2 2 0 0 0-2.35 0l-3.25 2.36c-1.567 1.139-3.676-.393-3.078-2.236l1.242-3.82a2 2 0 0 0-.727-2.236l-3.25-2.36c-1.567-1.139-.761-3.618 1.177-3.618h4.016a2 2 0 0 0 1.902-1.382l1.24-3.82ZM110.098 5.854c.599-1.843 3.205-1.843 3.804 0l1.241 3.82a2 2 0 0 0 1.902 1.382h4.017c1.937 0 2.743 2.479 1.175 3.618l-3.249 2.36a2.001 2.001 0 0 0-.727 2.236l1.241 3.82c.599 1.843-1.51 3.375-3.077 2.236l-3.249-2.36a2.001 2.001 0 0 0-2.352 0l-3.249 2.36c-1.567 1.139-3.676-.393-3.077-2.236l1.241-3.82a2.001 2.001 0 0 0-.727-2.236l-3.249-2.36c-1.568-1.139-.762-3.618 1.175-3.618h4.017a2 2 0 0 0 1.902-1.382l1.241-3.82ZM142.098 5.854c.599-1.843 3.205-1.843 3.804 0l1.241 3.82a2 2 0 0 0 1.902 1.382h4.017c1.937 0 2.743 2.479 1.175 3.618l-3.249 2.36a2.001 2.001 0 0 0-.727 2.236l1.241 3.82c.599 1.843-1.51 3.375-3.077 2.236l-3.249-2.36a2.001 2.001 0 0 0-2.352 0l-3.249 2.36c-1.567 1.139-3.676-.393-3.077-2.236l1.241-3.82a2.001 2.001 0 0 0-.727-2.236l-3.249-2.36c-1.568-1.139-.762-3.618 1.175-3.618h4.017a2 2 0 0 0 1.902-1.382l1.241-3.82Z" fill="#C4C4C4"/><path d="m179.684 12.656-7.185 7.004-7.184-7.004a.689.689 0 0 0-.96 0 .648.648 0 0 0-.146.72c.034.08.083.154.146.214l7.643 7.452a.718.718 0 0 0 1.003 0l7.643-7.45a.65.65 0 0 0 0-.937.685.685 0 0 0-.96 0v.001Z" fill="#000"/></svg>