<svg width="30" height="30" fill="none" xmlns="http://www.w3.org/2000/svg"><path d="M15 4.531a3.594 3.594 0 0 1 3.591 3.457l.003.137h4.531a.781.781 0 0 1 .08 1.558l-.08.005h-.682L21.38 23.794a2.656 2.656 0 0 1-2.649 2.456h-7.46a2.656 2.656 0 0 1-2.649-2.456L7.556 9.687h-.681a.781.781 0 0 1-.777-.7l-.004-.08a.78.78 0 0 1 .701-.778l.08-.004h4.531A3.594 3.594 0 0 1 15 4.531Zm5.876 5.157H9.124l1.056 13.988a1.094 1.094 0 0 0 1.09 1.012h7.46a1.094 1.094 0 0 0 1.09-1.012l1.057-13.988Zm-3.845 3.28c.405 0 .738.308.778.702l.003.08v6.875a.782.782 0 0 1-1.558.08l-.004-.08V13.75c0-.431.35-.781.781-.781Zm-4.062 0c.404 0 .737.308.777.702l.004.08v6.875a.782.782 0 0 1-1.559.08l-.004-.08V13.75c0-.431.35-.781.782-.781ZM15 6.095a2.031 2.031 0 0 0-2.028 1.916l-.003.115h4.062A2.031 2.031 0 0 0 15 6.094Z" fill="#000"/></svg>