<svg width="34" height="34" fill="none" xmlns="http://www.w3.org/2000/svg"><path d="M17 5.135a4.073 4.073 0 0 1 4.07 3.917l.003.156h5.135a.885.885 0 0 1 .091 1.766l-.09.005h-.773l-1.207 15.987a3.01 3.01 0 0 1-3.002 2.783h-8.454a3.01 3.01 0 0 1-3.002-2.783L8.564 10.978h-.772a.885.885 0 0 1-.881-.794l-.005-.09c0-.46.349-.837.795-.881l.09-.005h5.136A4.073 4.073 0 0 1 17 5.135Zm6.66 5.844H10.34l1.197 15.853a1.24 1.24 0 0 0 1.236 1.146h8.454a1.24 1.24 0 0 0 1.236-1.146l1.197-15.854Zm-4.358 3.718c.458 0 .836.349.881.795l.005.09v7.792a.885.885 0 0 1-1.767.091l-.004-.09v-7.792c0-.49.396-.886.885-.886Zm-4.604 0c.458 0 .836.349.881.795l.004.09v7.792a.885.885 0 0 1-1.766.091l-.005-.09v-7.792c0-.49.397-.886.886-.886ZM17 6.906a2.302 2.302 0 0 0-2.299 2.171l-.003.13h4.604A2.302 2.302 0 0 0 17 6.907Z" fill="#186273"/></svg>