<svg width="37" height="34" fill="none" xmlns="http://www.w3.org/2000/svg"><path d="m34.768 12.607-2.823-9.882A1 1 0 0 0 30.983 2h-6.745l.792 9.507a.964.964 0 0 0 .463.75c.65.388 1.92 1.105 2.912 1.41 1.693.521 4.167.333 5.577.16a.95.95 0 0 0 .786-1.22Z" stroke="#fff" stroke-width="3"/><path d="M21.737 13.667c.947-.292 2.147-.957 2.817-1.354a.963.963 0 0 0 .467-.915L24.237 2H12.571l-.784 9.398a.964.964 0 0 0 .467.917c.67.395 1.87 1.06 2.817 1.352 2.488.766 4.178.766 6.666 0Z" stroke="#fff" stroke-width="3"/><path d="M4.864 2.725 2.04 12.608a.95.95 0 0 0 .786 1.217c1.409.175 3.884.362 5.577-.158.992-.305 2.263-1.022 2.912-1.409a.963.963 0 0 0 .463-.751L12.57 2H5.826a1 1 0 0 0-.962.725Z" stroke="#fff" stroke-width="3"/><path d="M3.404 13.666v15a3.333 3.333 0 0 0 3.334 3.333H30.07a3.333 3.333 0 0 0 3.333-3.333v-15" stroke="#fff" stroke-width="3"/></svg>