<svg width="282" height="235" fill="none" xmlns="http://www.w3.org/2000/svg"><path d="M1 209.149c28.607-.462 88.13-6.741 97.357-28.165 9.229-21.423 18.303-57.252 21.687-72.489l6.459 43.402c20.61-21.239 60.076-69.812 53.062-94.19-8.766-30.473 17.534 64.64 0 71.104-17.533 6.464 81.208-89.11 52.14-121.892-29.069-32.782 67.827 108.041 7.844 134.82-47.987 21.423 4.306 8.926 36.451 0-23.686 23.701-78.901 68.795-110.277 59.561-31.376-9.235 36.144 1.385 73.826 7.849-20.302 13.851-71.334 36.29-113.046 15.236-41.711-21.053-70.595-8.772-79.823 0" stroke="#9BFFD2" stroke-width="3"/></svg>